<svg version="1.1" id="Layer_1" xmlns="http://www.w3.org/2000/svg" xmlns:xlink="http://www.w3.org/1999/xlink" x="0px" y="0px"
	 width="100%" viewBox="0 0 158 156" enable-background="new 0 0 158 156" xml:space="preserve">
<path fill="#15A858" opacity="1.000000" stroke="none" 
	d="
M103.000000,157.000000 
	C89.645775,157.000000 76.291542,157.000000 62.538467,156.654449 
	C64.704575,153.138580 67.089706,149.799927 69.869354,146.830582 
	C77.194603,139.005432 84.691208,131.340683 92.558411,123.603378 
	C106.421623,124.563599 115.007309,118.066345 117.368752,105.208290 
	C117.567474,104.126236 117.784225,102.701050 118.527603,102.121483 
	C123.489571,98.252953 125.001488,92.761810 126.393494,86.929153 
	C128.751984,85.475807 131.014755,84.348167 132.742462,82.669739 
	C139.979980,75.638695 147.019089,68.403770 154.226532,61.341167 
	C155.595016,60.000195 157.397675,59.102322 159.000000,58.000004 
	C159.000000,72.020897 159.000000,86.041786 158.639572,100.556404 
	C156.402267,102.326485 154.275925,103.350349 152.688126,104.919266 
	C140.273697,117.185989 127.850647,129.448303 115.677505,141.952667 
	C111.114311,146.640030 107.206581,151.965485 103.000000,157.000000 
z"/>
<path fill="#12B372" opacity="1.000000" stroke="none" 
	d="
M1.000000,99.000000 
	C1.000000,89.979103 1.000000,80.958214 1.345908,71.398666 
	C4.269099,68.858780 7.014689,67.037079 9.384937,64.815010 
	C13.111993,61.320942 16.547857,57.518566 20.175776,53.915977 
	C27.092640,47.047398 34.079395,40.249203 40.997169,33.381527 
	C47.787373,26.640507 54.662010,19.976368 61.236382,13.029395 
	C64.775894,9.289287 67.763420,5.026795 71.000000,1.000000 
	C79.687561,1.000000 88.375130,1.000000 97.461464,1.345440 
	C96.488144,3.712402 95.371132,5.980341 93.698608,7.711628 
	C87.377327,14.255024 80.820778,20.570873 74.483406,27.099186 
	C73.047546,28.578310 72.138466,30.568804 70.560043,32.340244 
	C60.539062,31.994377 55.298515,35.342430 51.535034,44.138313 
	C51.105045,45.143276 50.525085,46.384853 49.656601,46.854313 
	C42.008057,50.988758 38.940910,57.835941 37.639595,66.078674 
	C35.759125,67.383965 34.078693,68.478355 32.682899,69.860252 
	C24.038296,78.418793 15.517627,87.103577 6.800293,95.586624 
	C5.238559,97.106384 2.951931,97.881218 1.000000,99.000000 
z"/>
<path fill="#15AC60" opacity="1.000000" stroke="none" 
	d="
M159.000000,57.531345 
	C157.397675,59.102322 155.595016,60.000195 154.226532,61.341167 
	C147.019089,68.403770 139.979980,75.638695 132.742462,82.669739 
	C131.014755,84.348167 128.751984,85.475807 126.295876,86.531578 
	C124.634613,82.351089 123.385460,78.504143 122.204834,74.636269 
	C121.754440,73.160721 120.884720,71.505150 121.193382,70.157806 
	C122.753189,63.349060 120.462288,57.554115 117.087845,51.637398 
	C117.682251,50.474548 118.063187,49.508125 118.735687,48.831474 
	C128.977722,38.526203 139.241074,28.241859 149.558884,18.012569 
	C150.452042,17.127060 151.763672,16.663626 153.048935,16.316883 
	C155.144638,20.419750 157.072327,24.209873 159.000000,27.999998 
	C159.000000,37.687561 159.000000,47.375122 159.000000,57.531345 
z"/>
<path fill="#11B576" opacity="1.000000" stroke="none" 
	d="
M70.531349,1.000000 
	C67.763420,5.026795 64.775894,9.289287 61.236382,13.029395 
	C54.662010,19.976368 47.787373,26.640507 40.997169,33.381527 
	C34.079395,40.249203 27.092640,47.047398 20.175776,53.915977 
	C16.547857,57.518566 13.111993,61.320942 9.384937,64.815010 
	C7.014689,67.037079 4.269099,68.858780 1.345908,70.930008 
	C1.000000,62.312435 1.000000,53.624874 1.359918,44.443581 
	C3.003362,43.271778 4.547101,42.855110 5.530834,41.875862 
	C17.589491,29.872250 29.586309,17.806149 41.536026,5.693960 
	C42.887814,4.323792 43.854656,2.573843 45.000000,1.000000 
	C53.354233,1.000000 61.708466,1.000000 70.531349,1.000000 
z"/>
<path fill="#15AC60" opacity="1.000000" stroke="none" 
	d="
M92.119576,123.612061 
	C84.691208,131.340683 77.194603,139.005432 69.869354,146.830582 
	C67.089706,149.799927 64.704575,153.138580 62.069809,156.654449 
	C51.645771,157.000000 41.291542,157.000000 30.133728,156.879089 
	C26.180534,155.255203 23.030926,153.752213 20.058458,151.947647 
	C29.751041,142.013809 39.245213,132.360291 48.817486,122.784836 
	C49.696640,121.905388 51.074554,121.524529 52.571693,120.999878 
	C63.155083,126.001205 72.206718,124.405769 79.309509,116.543159 
	C83.861801,119.055222 87.990692,121.333641 92.119576,123.612061 
z"/>
<path fill="#16A652" opacity="1.000000" stroke="none" 
	d="
M103.468658,157.000000 
	C107.206581,151.965485 111.114311,146.640030 115.677505,141.952667 
	C127.850647,129.448303 140.273697,117.185989 152.688126,104.919266 
	C154.275925,103.350349 156.402267,102.326485 158.639572,101.025063 
	C159.000000,109.687561 159.000000,118.375130 158.999496,127.911240 
	C153.852753,142.814728 144.498489,152.548584 130.000000,157.000000 
	C121.312439,157.000000 112.624870,157.000000 103.468658,157.000000 
z"/>
<path fill="#14AF68" opacity="1.000000" stroke="none" 
	d="
M152.880920,16.004137 
	C151.763672,16.663626 150.452042,17.127060 149.558884,18.012569 
	C139.241074,28.241859 128.977722,38.526203 118.735687,48.831474 
	C118.063187,49.508125 117.682251,50.474548 116.777718,51.510017 
	C113.782974,49.323776 110.129349,47.402740 108.801720,44.439564 
	C106.504456,39.312222 103.249214,35.665020 98.578018,32.719337 
	C100.043633,30.472527 101.178078,28.428501 102.753960,26.815868 
	C109.668411,19.740202 116.749954,12.827899 123.672165,5.759663 
	C125.008331,4.395308 125.902130,2.597730 127.000000,1.000000 
	C129.700012,1.000000 132.400024,1.000000 135.775208,1.256417 
	C143.131012,4.978393 149.332474,8.987233 152.880920,16.004137 
z"/>
<path fill="#13B16D" opacity="1.000000" stroke="none" 
	d="
M1.000000,99.468658 
	C2.951931,97.881218 5.238559,97.106384 6.800293,95.586624 
	C15.517627,87.103577 24.038296,78.418793 32.682899,69.860252 
	C34.078693,68.478355 35.759125,67.383965 37.765678,66.479820 
	C39.152012,71.039886 38.375301,74.895256 35.775604,78.410126 
	C35.310482,79.038994 35.256317,79.963280 34.973736,80.737038 
	C32.750378,86.824974 35.365372,92.353966 36.613205,98.072998 
	C34.255196,99.521614 31.989180,100.642090 30.266870,102.320488 
	C22.456091,109.932144 14.839342,117.742676 7.050337,125.377144 
	C5.570704,126.827408 3.627549,127.804771 1.638596,128.955185 
	C1.252618,128.606689 1.126309,128.303345 1.000000,128.000000 
	C1.000000,118.645775 1.000000,109.291542 1.000000,99.468658 
z"/>
<path fill="#13B16D" opacity="1.000000" stroke="none" 
	d="
M126.531342,1.000000 
	C125.902130,2.597730 125.008331,4.395308 123.672165,5.759663 
	C116.749954,12.827899 109.668411,19.740202 102.753960,26.815868 
	C101.178078,28.428501 100.043633,30.472527 98.157806,32.702644 
	C90.787415,30.831392 85.009323,33.223701 80.370369,37.199245 
	C76.805618,35.347122 73.896263,33.835518 70.986900,32.323914 
	C72.138466,30.568804 73.047546,28.578310 74.483406,27.099186 
	C80.820778,20.570873 87.377327,14.255024 93.698608,7.711628 
	C95.371132,5.980341 96.488144,3.712402 97.930115,1.345440 
	C107.354225,1.000000 116.708458,1.000000 126.531342,1.000000 
z"/>
<path fill="#12B77B" opacity="1.000000" stroke="none" 
	d="
M44.531467,1.000000 
	C43.854656,2.573843 42.887814,4.323792 41.536026,5.693960 
	C29.586309,17.806149 17.589491,29.872250 5.530834,41.875862 
	C4.547101,42.855110 3.003362,43.271778 1.359918,43.974930 
	C1.000000,38.977909 1.000000,33.955814 1.000500,28.087254 
	C5.303373,15.545481 12.723949,6.583156 24.000000,1.000000 
	C30.687645,1.000000 37.375290,1.000000 44.531467,1.000000 
z"/>
<path fill="#FAFDFC" opacity="1.000000" stroke="none" 
	d="
M1.000000,128.468658 
	C1.126309,128.303345 1.252618,128.606689 1.636447,129.334015 
	C4.984873,139.578247 10.669051,147.324524 19.881317,152.249222 
	C23.030926,153.752213 26.180534,155.255203 29.665071,156.879089 
	C20.406853,157.000000 10.813705,157.000000 1.000000,157.000000 
	C1.000000,147.646927 1.000000,138.292114 1.000000,128.468658 
z"/>
<path fill="#FAFDFB" opacity="1.000000" stroke="none" 
	d="
M130.468658,157.000000 
	C144.498489,152.548584 153.852753,142.814728 158.999496,128.379883 
	C159.000000,137.593140 159.000000,147.186295 159.000000,157.000000 
	C149.646927,157.000000 140.292114,157.000000 130.468658,157.000000 
z"/>
<path fill="#F9FDFB" opacity="1.000000" stroke="none" 
	d="
M153.048935,16.316883 
	C149.332474,8.987233 143.131012,4.978393 136.225189,1.256417 
	C143.598938,1.000000 151.197861,1.000000 159.000000,1.000000 
	C159.000000,9.686505 159.000000,18.374590 159.000000,27.531336 
	C157.072327,24.209873 155.144638,20.419750 153.048935,16.316883 
z"/>
<path fill="#FAFDFC" opacity="1.000000" stroke="none" 
	d="
M23.531263,1.000000 
	C12.723949,6.583156 5.303373,15.545481 1.000500,27.620392 
	C1.000000,19.079538 1.000000,10.159078 1.000000,1.000000 
	C8.352462,1.000000 15.707495,1.000000 23.531263,1.000000 
z"/>
<path fill="#F9FDFB" opacity="1.000000" stroke="none" 
	d="
M70.560043,32.340244 
	C73.896263,33.835518 76.805618,35.347122 80.370369,37.199245 
	C85.009323,33.223701 90.787415,30.831392 98.029816,33.103989 
	C103.249214,35.665020 106.504456,39.312222 108.801720,44.439564 
	C110.129349,47.402740 113.782974,49.323776 116.699875,51.841225 
	C120.462288,57.554115 122.753189,63.349060 121.193382,70.157806 
	C120.884720,71.505150 121.754440,73.160721 122.204834,74.636269 
	C123.385460,78.504143 124.634613,82.351089 125.954071,86.603958 
	C125.001488,92.761810 123.489571,98.252953 118.527603,102.121483 
	C117.784225,102.701050 117.567474,104.126236 117.368752,105.208290 
	C115.007309,118.066345 106.421623,124.563599 92.558411,123.603378 
	C87.990692,121.333641 83.861801,119.055222 79.309509,116.543159 
	C72.206718,124.405769 63.155083,126.001205 52.394630,120.707138 
	C48.931149,116.224808 44.777126,112.486565 43.413124,107.915733 
	C42.127579,103.607819 40.295506,100.546394 36.955574,98.001778 
	C35.365372,92.353966 32.750378,86.824974 34.973736,80.737038 
	C35.256317,79.963280 35.310482,79.038994 35.775604,78.410126 
	C38.375301,74.895256 39.152012,71.039886 38.097294,66.401825 
	C38.940910,57.835941 42.008057,50.988758 49.656601,46.854313 
	C50.525085,46.384853 51.105045,45.143276 51.535034,44.138313 
	C55.298515,35.342430 60.539062,31.994377 70.560043,32.340244 
M84.743958,66.849571 
	C84.778419,71.010574 86.666100,74.093712 90.166435,76.270988 
	C92.241379,77.561653 94.280411,78.910065 96.417320,80.969727 
	C96.881409,85.971512 93.918999,86.540947 89.563972,85.394066 
	C87.990860,84.651466 86.417747,83.908867 84.454002,82.981865 
	C84.454002,85.943504 84.454002,88.480469 84.272743,91.928299 
	C84.260887,95.921555 84.070793,99.924149 84.279388,103.905853 
	C84.584274,109.725632 89.208954,114.436867 95.050331,115.237244 
	C100.990829,116.051193 105.496956,113.345001 107.326736,108.808578 
	C104.929970,106.607384 101.611969,105.018211 101.255150,102.924423 
	C100.544357,98.753410 104.680984,99.175697 107.507408,98.469482 
	C112.120613,97.316826 115.788712,94.716293 116.915878,89.856964 
	C118.072914,84.868874 117.156509,80.408211 112.881058,76.828796 
	C111.135490,75.367409 110.170914,72.973175 109.185242,70.342712 
	C114.610977,64.605537 114.226204,60.222500 107.929237,56.035233 
	C103.760330,60.689289 100.961952,60.367313 99.216179,54.309658 
	C99.519142,53.534702 99.879715,52.776852 100.115768,51.982025 
	C101.707512,46.622242 99.516045,42.224617 94.665352,40.992195 
	C89.337440,39.638523 84.864029,42.424622 84.480202,48.195210 
	C84.086578,54.113037 84.673523,60.096088 84.743958,66.849571 
M63.321693,82.243248 
	C64.788124,80.617638 66.220665,78.959801 67.728821,77.373878 
	C70.071136,74.910782 74.168304,72.715584 74.514748,70.020332 
	C75.519180,62.206150 75.348747,54.184540 74.981247,46.274902 
	C74.805138,42.484657 71.504272,40.811508 67.816780,40.701836 
	C61.336578,40.509090 58.288048,45.665340 60.052429,52.915989 
	C60.466621,54.618103 59.296570,56.705727 58.855366,58.615993 
	C56.945641,58.150917 55.013988,57.756233 53.141109,57.172859 
	C52.653366,57.020939 52.348919,56.280552 51.616856,55.395023 
	C50.281517,57.085537 48.586693,58.335487 48.223461,59.895481 
	C47.640804,62.397861 46.832104,65.964340 48.073616,67.565338 
	C51.798176,72.368385 52.156036,72.659294 47.694798,76.457893 
	C40.497509,82.586143 40.716976,90.912071 48.826141,97.017494 
	C50.539291,97.594452 52.420376,97.897339 53.922897,98.818031 
	C55.783451,99.958092 58.525158,101.438126 58.761620,103.077698 
	C59.242531,106.412277 56.409836,107.327934 53.382404,107.141670 
	C52.966290,107.116066 52.532604,107.376167 52.091564,107.508652 
	C54.478088,113.121376 58.453201,115.712036 63.992542,115.360283 
	C69.415657,115.015900 74.888481,111.075920 75.318436,105.839485 
	C75.930840,98.380966 75.474136,90.834663 75.474136,83.204414 
	C71.028748,84.250893 66.889755,89.608131 63.321693,82.243248 
z"/>
<path fill="#14AF67" opacity="1.000000" stroke="none" 
	d="
M36.613205,98.072998 
	C40.295506,100.546394 42.127579,103.607819 43.413124,107.915733 
	C44.777126,112.486565 48.931149,116.224808 52.043804,120.619400 
	C51.074554,121.524529 49.696640,121.905388 48.817486,122.784836 
	C39.245213,132.360291 29.751041,142.013809 20.058458,151.947647 
	C10.669051,147.324524 4.984873,139.578247 1.896116,129.379166 
	C3.627549,127.804771 5.570704,126.827408 7.050337,125.377144 
	C14.839342,117.742676 22.456091,109.932144 30.266870,102.320488 
	C31.989180,100.642090 34.255196,99.521614 36.613205,98.072998 
z"/>
<path fill="#17B16D" opacity="1.000000" stroke="none" 
	d="
M48.225090,96.575630 
	C40.716976,90.912071 40.497509,82.586143 47.694798,76.457893 
	C52.156036,72.659294 51.798176,72.368385 48.073616,67.565338 
	C46.832104,65.964340 47.640804,62.397861 48.223461,59.895481 
	C48.586693,58.335487 50.281517,57.085537 51.616856,55.395023 
	C52.348919,56.280552 52.653366,57.020939 53.141109,57.172859 
	C55.013988,57.756233 56.945641,58.150917 58.855370,58.615990 
	C59.296570,56.705727 60.466621,54.618103 60.052429,52.915989 
	C58.288048,45.665340 61.336578,40.509090 67.816780,40.701836 
	C71.504272,40.811508 74.805138,42.484657 74.981247,46.274902 
	C75.348747,54.184540 75.519180,62.206150 74.514748,70.020332 
	C74.168304,72.715584 70.071136,74.910782 67.728821,77.373878 
	C66.220665,78.959801 64.788124,80.617638 62.950695,82.759583 
	C57.794827,87.709152 53.009956,92.142395 48.225090,96.575630 
z"/>
<path fill="#16AC61" opacity="1.000000" stroke="none" 
	d="
M108.851021,71.003334 
	C110.170914,72.973175 111.135490,75.367409 112.881058,76.828796 
	C117.156509,80.408211 118.072914,84.868874 116.915878,89.856964 
	C115.788712,94.716293 112.120613,97.316826 107.507408,98.469482 
	C104.680984,99.175697 100.544357,98.753410 101.255150,102.924423 
	C101.611969,105.018211 104.929970,106.607384 107.326736,108.808578 
	C105.496956,113.345001 100.990829,116.051193 95.050331,115.237244 
	C89.208954,114.436867 84.584274,109.725632 84.279388,103.905853 
	C84.070793,99.924149 84.260887,95.921555 84.694725,91.437569 
	C86.753784,89.267609 88.390869,87.588379 90.027946,85.909149 
	C93.918999,86.540947 96.881409,85.971512 96.715027,80.435715 
	C98.368141,78.740387 99.659943,77.492760 101.092941,76.436714 
	C103.633766,74.564255 106.260330,72.808136 108.851021,71.003334 
z"/>
<path fill="#19AF68" opacity="1.000000" stroke="none" 
	d="
M48.525616,96.796562 
	C53.009956,92.142395 57.794827,87.709152 62.876175,83.101349 
	C66.889755,89.608131 71.028748,84.250893 75.474136,83.204414 
	C75.474136,90.834663 75.930840,98.380966 75.318436,105.839485 
	C74.888481,111.075920 69.415657,115.015900 63.992542,115.360283 
	C58.453201,115.712036 54.478088,113.121376 52.091564,107.508652 
	C52.532604,107.376167 52.966290,107.116066 53.382404,107.141670 
	C56.409836,107.327934 59.242531,106.412277 58.761620,103.077698 
	C58.525158,101.438126 55.783451,99.958092 53.922897,98.818031 
	C52.420376,97.897339 50.539291,97.594452 48.525616,96.796562 
z"/>
<path fill="#19AF67" opacity="1.000000" stroke="none" 
	d="
M109.018127,70.673019 
	C106.260330,72.808136 103.633766,74.564255 101.092941,76.436714 
	C99.659943,77.492760 98.368141,78.740387 96.674164,80.067108 
	C94.280411,78.910065 92.241379,77.561653 90.166435,76.270988 
	C86.666100,74.093712 84.778419,71.010574 85.132271,66.370102 
	C87.163055,64.609634 88.829216,63.357655 90.442795,62.041233 
	C93.293709,59.715355 96.112587,57.350224 98.944870,55.001518 
	C100.961952,60.367313 103.760330,60.689289 107.929237,56.035233 
	C114.226204,60.222500 114.610977,64.605537 109.018127,70.673019 
z"/>
<path fill="#1AB16C" opacity="1.000000" stroke="none" 
	d="
M99.080521,54.655586 
	C96.112587,57.350224 93.293709,59.715355 90.442795,62.041233 
	C88.829216,63.357655 87.163055,64.609634 85.175941,65.970612 
	C84.673523,60.096088 84.086578,54.113037 84.480202,48.195210 
	C84.864029,42.424622 89.337440,39.638523 94.665352,40.992195 
	C99.516045,42.224617 101.707512,46.622242 100.115768,51.982025 
	C99.879715,52.776852 99.519142,53.534702 99.080521,54.655586 
z"/>
<path fill="#19AF67" opacity="1.000000" stroke="none" 
	d="
M89.795959,85.651611 
	C88.390869,87.588379 86.753784,89.267609 84.785355,90.982132 
	C84.454002,88.480469 84.454002,85.943504 84.454002,82.981865 
	C86.417747,83.908867 87.990860,84.651466 89.795959,85.651611 
z"/>
</svg>
